<svg width="136" height="136" viewBox="0 0 136 136" fill="none" xmlns="http://www.w3.org/2000/svg">
    <path d="M68 133C103.899 133 133 103.899 133 68C133 32.1015 103.899 3 68 3C32.1015 3 3 32.1015 3 68C3 103.899 32.1015 133 68 133Z" stroke="white" stroke-width="6"/>
    <path d="M68 47.7778C68 37.6667 61.5 27.5555 49.2222 27.5555C37.6667 27.5555 27.5555 37.6667 27.5555 49.2222C27.5555 65.1111 44.8889 81.7222 68 105.556C91.1111 81.7222 108.444 65.1111 108.444 49.2222C108.444 37.6667 98.3333 27.5555 86.7778 27.5555C74.5 27.5555 68 37.6667 68 47.7778Z" fill="white"/>
</svg>
