<svg width="20" height="19" viewBox="0 0 20 19" fill="none" xmlns="http://www.w3.org/2000/svg">
    <path fill-rule="evenodd" clip-rule="evenodd" d="M0 3.02681C0 2.22405 0.316071 1.45417 0.87868 0.886532C1.44129 0.318895 2.20435 0 3 0H17C17.7956 0 18.5587 0.318895 19.1213 0.886532C19.6839 1.45417 20 2.22405 20 3.02681V15.134C20 15.9368 19.6839 16.7067 19.1213 17.2743C18.5587 17.842 17.7956 18.1608 17 18.1608H3C2.20435 18.1608 1.44129 17.842 0.87868 17.2743C0.316071 16.7067 0 15.9368 0 15.134V3.02681ZM3 2.01787C2.73478 2.01787 2.48043 2.12417 2.29289 2.31338C2.10536 2.50259 2 2.75922 2 3.02681V15.134C2 15.4016 2.10536 15.6583 2.29289 15.8475C2.48043 16.0367 2.73478 16.143 3 16.143H17C17.2652 16.143 17.5196 16.0367 17.7071 15.8475C17.8946 15.6583 18 15.4016 18 15.134V3.02681C18 2.75922 17.8946 2.50259 17.7071 2.31338C17.5196 2.12417 17.2652 2.01787 17 2.01787H3ZM14 4.03574C14 3.76816 14.1054 3.51153 14.2929 3.32232C14.4804 3.13311 14.7348 3.02681 15 3.02681H16C16.2652 3.02681 16.5196 3.13311 16.7071 3.32232C16.8946 3.51153 17 3.76816 17 4.03574C17 4.30333 16.8946 4.55996 16.7071 4.74917C16.5196 4.93838 16.2652 5.04468 16 5.04468H15C14.7348 5.04468 14.4804 4.93838 14.2929 4.74917C14.1054 4.55996 14 4.30333 14 4.03574ZM7 9.08042C7 8.27766 7.31607 7.50778 7.87868 6.94015C8.44129 6.37251 9.20435 6.05362 10 6.05362C10.7956 6.05362 11.5587 6.37251 12.1213 6.94015C12.6839 7.50778 13 8.27766 13 9.08042C13 9.88318 12.6839 10.6531 12.1213 11.2207C11.5587 11.7883 10.7956 12.1072 10 12.1072C9.20435 12.1072 8.44129 11.7883 7.87868 11.2207C7.31607 10.6531 7 9.88318 7 9.08042ZM10 4.03574C8.67392 4.03574 7.40215 4.56723 6.46447 5.5133C5.52678 6.45936 5 7.74249 5 9.08042C5 10.4184 5.52678 11.7015 6.46447 12.6476C7.40215 13.5936 8.67392 14.1251 10 14.1251C11.3261 14.1251 12.5979 13.5936 13.5355 12.6476C14.4732 11.7015 15 10.4184 15 9.08042C15 7.74249 14.4732 6.45936 13.5355 5.5133C12.5979 4.56723 11.3261 4.03574 10 4.03574Z" fill="white"/>
</svg>
