<svg width="48" height="39" viewBox="0 0 48 39" fill="none" xmlns="http://www.w3.org/2000/svg">
<path d="M45.3152 32.7867C45.3152 33.8074 44.9097 34.7862 44.188 35.5079C43.4663 36.2296 42.4875 36.6351 41.4668 36.6351H6.83174C5.8111 36.6351 4.83226 36.2296 4.11055 35.5079C3.38885 34.7862 2.9834 33.8074 2.9834 32.7867V11.6209C2.9834 10.6002 3.38885 9.62137 4.11055 8.89966C4.83226 8.17796 5.8111 7.77251 6.83174 7.77251H14.5284L18.3768 2H29.9218L33.7701 7.77251H41.4668C42.4875 7.77251 43.4663 8.17796 44.188 8.89966C44.9097 9.62137 45.3152 10.6002 45.3152 11.6209V32.7867ZM24.1493 21.2417C22.6183 21.2417 21.15 20.6335 20.0675 19.551C18.9849 18.4684 18.3768 17.0002 18.3768 15.4692C18.3768 13.9382 18.9849 12.47 20.0675 11.3874C21.15 10.3049 22.6183 9.69668 24.1493 9.69668C25.6802 9.69668 27.1485 10.3049 28.2311 11.3874C29.3136 12.47 29.9218 13.9382 29.9218 15.4692C29.9218 17.0002 29.3136 18.4684 28.2311 19.551C27.1485 20.6335 25.6802 21.2417 24.1493 21.2417Z" fill="#EF8C0B" stroke="#EF8C0B" stroke-width="4" stroke-linecap="round" stroke-linejoin="round"/>
</svg>
