<svg width="47" height="40" viewBox="0 0 47 40" fill="none" xmlns="http://www.w3.org/2000/svg">
<path d="M41.3245 5.46764C40.3024 4.4844 39.0888 3.70442 37.7532 3.17226C36.4175 2.64011 34.9859 2.36621 33.5401 2.36621C32.0943 2.36621 30.6626 2.64011 29.327 3.17226C27.9913 3.70442 26.7777 4.4844 25.7556 5.46764L23.6344 7.50726L21.5132 5.46764C19.4487 3.48249 16.6485 2.36724 13.7288 2.36724C10.8091 2.36724 8.00894 3.48249 5.94438 5.46764C3.87983 7.45279 2.71997 10.1452 2.71997 12.9527C2.71997 15.7601 3.87983 18.4525 5.94438 20.4377L8.06559 22.4773L23.6344 37.4474L39.2033 22.4773L41.3245 20.4377C42.3471 19.4549 43.1582 18.288 43.7117 17.0037C44.2651 15.7194 44.55 14.3429 44.55 12.9527C44.55 11.5625 44.2651 10.1859 43.7117 8.9016C43.1582 7.61729 42.3471 6.45042 41.3245 5.46764Z" fill="#EF4444" stroke="#EF4444" stroke-width="4" stroke-linecap="round" stroke-linejoin="round"/>
</svg>
