<svg width="39" height="42" viewBox="0 0 39 42" fill="none" xmlns="http://www.w3.org/2000/svg">
<path d="M2.88 35C2.88 33.6739 3.42786 32.4021 4.40305 31.4645C5.37824 30.5268 6.70088 30 8.08 30H36.16M2.88 35C2.88 36.3261 3.42786 37.5979 4.40305 38.5355C5.37824 39.4732 6.70088 40 8.08 40H36.16M2.88 35V6C2.88 4.93913 3.31829 3.92172 4.09844 3.17157C4.87859 2.42143 5.9367 2 7.04 2H32C33.1033 2 34.1614 2.42143 34.9416 3.17157C35.7217 3.92172 36.16 4.93913 36.16 6V34" fill="#22C55E"/>
<path d="M2.88 35C2.88 33.6739 3.42786 32.4021 4.40305 31.4645C5.37824 30.5268 6.70088 30 8.08 30H36.16M2.88 35C2.88 36.3261 3.42786 37.5979 4.40305 38.5355C5.37824 39.4732 6.70088 40 8.08 40H36.16M2.88 35V6C2.88 4.93913 3.31829 3.92172 4.09844 3.17157C4.87859 2.42143 5.9367 2 7.04 2H32C33.1033 2 34.1614 2.42143 34.9416 3.17157C35.7217 3.92172 36.16 4.93913 36.16 6V34" stroke="#22C55E" stroke-width="4" stroke-linecap="round" stroke-linejoin="round"/>
</svg>
