<svg width="25" height="24" viewBox="0 0 25 24" fill="none" xmlns="http://www.w3.org/2000/svg">
    <path fill-rule="evenodd" clip-rule="evenodd" d="M11.8003 4C7.9343 4 4.80029 7.13401 4.80029 11C4.80029 14.866 7.9343 18 11.8003 18C15.6663 18 18.8003 14.866 18.8003 11C18.8003 7.13401 15.6663 4 11.8003 4ZM2.80029 11C2.80029 6.02944 6.82973 2 11.8003 2C16.7709 2 20.8003 6.02944 20.8003 11C20.8003 15.9706 16.7709 20 11.8003 20C6.82973 20 2.80029 15.9706 2.80029 11Z" fill="#999999"/>
    <path fill-rule="evenodd" clip-rule="evenodd" d="M16.7431 15.9428C17.1336 15.5523 17.7668 15.5523 18.1573 15.9428L22.5073 20.2928C22.8978 20.6833 22.8978 21.3165 22.5073 21.707C22.1168 22.0975 21.4836 22.0975 21.0931 21.707L16.7431 17.357C16.3526 16.9665 16.3526 16.3333 16.7431 15.9428Z" fill="#999999"/>
</svg>
