<svg width="25" height="24" viewBox="0 0 25 24" fill="none" xmlns="http://www.w3.org/2000/svg">
    <path fill-rule="evenodd" clip-rule="evenodd" d="M12.2002 3C7.22963 3 3.2002 7.02944 3.2002 12C3.2002 16.9706 7.22963 21 12.2002 21C17.1708 21 21.2002 16.9706 21.2002 12C21.2002 7.02944 17.1708 3 12.2002 3ZM1.2002 12C1.2002 5.92487 6.12506 1 12.2002 1C18.2753 1 23.2002 5.92487 23.2002 12C23.2002 18.0751 18.2753 23 12.2002 23C6.12506 23 1.2002 18.0751 1.2002 12Z" fill="#999999"/>
    <path fill-rule="evenodd" clip-rule="evenodd" d="M12.2002 5C12.7525 5 13.2002 5.44772 13.2002 6V11.382L16.6474 13.1056C17.1414 13.3526 17.3416 13.9532 17.0946 14.4472C16.8476 14.9412 16.247 15.1414 15.753 14.8944L11.753 12.8944C11.4142 12.725 11.2002 12.3788 11.2002 12V6C11.2002 5.44772 11.6479 5 12.2002 5Z" fill="#999999"/>
</svg>
